# xmcd
# 
# Track frame offsets:
#     183
#     43570
#     79420
#     121945
#     141193
# 
# Disc length: 3363
# 
# Revision: 2
# Processed by: cddbd v1.5.2PL0 Copyright (c) Steve Scherf et al.
# Submitted via: fre:ac v1.0.17
# 
DISCID=3e0d2105
DTITLE=Klaus Schulze - Dreams
DYEAR=1986
DGENRE=Blues
TTITLE0=A classical move
TTITLE1=Five to four
TTITLE2=Dreams
TTITLE3=Flexible
TTITLE4=Klaustrophony
EXTD=YEAR: 1986 ID3G:   0
EXTT0=
EXTT1=
EXTT2=
EXTT3=
EXTT4=
PLAYORDER=
